<!-- Generated by IcoMoon.io -->
<svg version="1.1" xmlns="http://www.w3.org/2000/svg" width="3066" height="1024" viewBox="0 0 3066 1024">
<title></title>
<g id="icomoon-ignore">
</g>
<path fill="#666" d="M250.469 611.438h4.499l76.758-254.735c5.53-17.338 19.869-41.237 54.171-41.331 32.802 0 63.637 19.4 63.731 56.233 0 10.591-1.874 19.4-7.591 33.459l-100.094 276.478c-19.681 53.14-31.49 71.509-82.569 71.603h-8.716c-50.797 0-68.323-18.369-88.098-72.259l-99.532-275.541c-5.53-14.058-7.779-22.774-7.779-33.459 0-36.833 31.022-56.233 64.012-56.233 34.115 0 48.36 23.899 54.077 41.144l77.133 254.641zM1481.874 107.873c0-38.801 25.211-64.855 60.638-64.855 36.083 0 61.575 25.961 61.575 64.761l0.469 579.292c0 38.707-25.398 64.574-61.481 64.668-35.427 0-60.825-25.867-60.825-64.574l-0.375-579.292zM1702.401 377.884c0-37.676 25.117-63.637 60.544-63.637 36.083 0 61.669 25.773 61.762 63.543l0.281 309.187c0 38.707-25.586 64.855-61.669 64.855-35.333 0-60.638-26.055-60.638-64.761l-0.281-309.187zM2319.556 687.54c0 37.676-26.429 63.543-61.669 63.637-35.239 0-61.95-25.773-61.95-63.543l-0.187-197.752c0-47.423-26.429-78.82-78.257-78.726-49.391 0-79.382 23.899-79.382 78.913l0.187 197.752c0 37.676-25.211 63.543-61.388 63.637-35.239 0-60.825-25.773-60.825-63.543l-0.094-179.289c-0.094-132.897 71.509-199.064 201.407-199.158 129.054-0.094 201.876 65.98 201.97 197.658l0.187 180.414zM514.669 374.792c0-38.051 26.429-64.012 61.669-64.012s60.45 25.773 60.544 63.824l0.187 198.689c0 47.517 26.523 78.913 78.445 78.82 49.485 0 80.413-23.805 80.413-79.007l-0.187-198.689c0-38.051 25.117-63.918 61.481-64.012 35.333 0 60.731 25.867 60.825 63.918l0.094 180.32c0.094 132.991-71.791 198.971-201.501 199.158-128.773 0.094-201.501-65.792-201.688-197.752l-0.281-181.257zM2761.078 337.116c34.115 14.902 56.045 34.302 56.139 72.165l0.281 358.766c0.094 128.773-69.448 212.841-223.526 212.935-74.883 0-172.916-38.707-173.010-89.41 0-27.085 20.9-50.797 44.986-50.891 38.519 0 67.198 33.459 137.677 33.459 70.478-0.094 98.126-34.771 98.033-90.722v-68.229c-19.775 20.525-58.295 37.020-112.466 37.020-113.215 0.094-192.691-82.1-192.785-219.308-0.094-135.053 88.942-223.807 223.338-223.9 67.292-0.094 114.715 16.214 141.332 28.116v0zM2701.471 444.052c0-14.152-27.648-34.677-78.164-34.677-76.102 0.094-105.718 47.798-105.624 123.431 0 85.474 29.71 116.589 91.285 116.496 61.762 0 92.69-40.206 92.597-121.088l-0.094-84.162zM1111.019 572.919c7.779 48.641 32.802 82.1 94.659 82.006 60.731 0 93.534-22.681 124.556-22.681 24.086 0 44.893 24.742 44.986 48.36 0 46.486-81.444 71.603-170.573 71.697-131.023 0.094-212.841-84.256-212.935-219.402-0.094-135.99 80.413-224.744 209.28-224.838 137.583-0.094 198.408 89.598 198.502 212.748 0 33.459-14.339 51.828-50.797 51.922l-237.677 0.187zM1284.872 492.881c-3.561-56.233-29.897-90.722-87.255-90.722-56.045 0-81.35 25.117-86.692 90.816l173.947-0.094z"></path>
<path fill="#fc0" d="M3010.751 157.358c0 44.33-29.616 75.727-79.288 75.727-49.579 0-78.164-31.209-78.164-75.633-0.094-43.299 28.398-74.509 77.976-74.602 49.766 0 79.476 31.209 79.476 74.509v0z"></path>
</svg>
